<svg height="368pt" viewBox="0 0 368 368" width="368pt" xmlns="http://www.w3.org/2000/svg"><path d="m296 8h-256c17.679688 0 32 14.320312 32 32v288c0 17.679688 14.320312 32 32 32s32-14.320312 32-32v-32h192v-256c0-17.679688-14.320312-32-32-32zm-16 128h-160v-64h160zm0 0" fill="#cce4ff"/><g fill="#007aff"><path d="m360 288h-24v-248c0-22.054688-17.945312-40-40-40h-256c-22.054688 0-40 17.945312-40 40v64c0 4.414062 3.574219 8 8 8h56v216c0 22.054688 17.945312 40 40 40h224c22.054688 0 40-17.945312 40-40v-32c0-4.425781-3.574219-8-8-8zm-296-192h-48v-56c0-13.230469 10.769531-24 24-24s24 10.769531 24 24zm64 200v32c0 13.230469-10.769531 24-24 24s-24-10.769531-24-24v-288c0-9.039062-3.128906-17.296875-8.207031-24h224.207031c13.230469 0 24 10.769531 24 24v248h-184c-4.425781 0-8 3.574219-8 8zm224 32c0 13.230469-10.769531 24-24 24h-192.015625c5.03125-6.6875 8.015625-15 8.015625-24v-24h208zm0 0"/><path d="m120 144h160c4.425781 0 8-3.585938 8-8v-64c0-4.414062-3.574219-8-8-8h-160c-4.425781 0-8 3.585938-8 8v64c0 4.414062 3.574219 8 8 8zm8-64h144v48h-144zm0 0"/><path d="m120 192h160c4.425781 0 8-3.585938 8-8s-3.574219-8-8-8h-160c-4.425781 0-8 3.585938-8 8s3.574219 8 8 8zm0 0"/><path d="m288 232c0-4.425781-3.574219-8-8-8h-160c-4.425781 0-8 3.574219-8 8s3.574219 8 8 8h160c4.425781 0 8-3.574219 8-8zm0 0"/></g></svg>