<?xml version="1.0" encoding="iso-8859-1"?>
<!-- Generator: Adobe Illustrator 19.0.0, SVG Export Plug-In . SVG Version: 6.00 Build 0)  -->
<svg xmlns="http://www.w3.org/2000/svg" xmlns:xlink="http://www.w3.org/1999/xlink" version="1.1" id="Capa_1" x="0px" y="0px" viewBox="0 0 454.141 454.141" style="enable-background:new 0 0 454.141 454.141;" xml:space="preserve" width="512" height="512">
<g>
	<path style="fill:#98D9D5;" d="M204.541,265.03l45.45,30.97l153.64-219.4c17.42-24.88,11.37-59.18-13.51-76.6L204.541,265.03z"/>
	<path style="fill:#C1E8E6;" d="M249.601,265.03L204.151,296L50.511,76.6C33.091,51.72,39.141,17.42,64.021,0L249.601,265.03z"/>
	<path style="fill:#FF6E1D;" d="M137.541,290.75c18.58,11.92,43.14,8.35,55.8-9.73l0.16-0.22l11.04-15.77   c8.71-12.44,25.86-15.47,38.3-6.75c12.25,8.58,15.37,25.33,7.15,37.72l-84.91,121.25c-25.81,36.48-75.64,47.94-115.11,25.16   c-41.85-24.17-56.19-77.68-32.02-119.54C42.111,281.02,96.871,264.65,137.541,290.75z M142.911,396.23   c15.88-27.5,6.46-62.67-21.04-78.55c-27.5-15.87-62.67-6.45-78.54,21.05c-15.88,27.5-6.46,62.66,21.04,78.54   C91.871,433.15,127.041,423.73,142.911,396.23z"/>
	<path style="fill:#F2484B;" d="M436.191,322.87c24.17,41.86,9.83,95.37-32.02,119.54c-39.47,22.78-89.3,11.32-115.11-25.16   L204.151,296c-8.22-12.39-5.1-29.14,7.15-37.72c12.44-8.72,29.59-5.69,38.3,6.75l11.04,15.77l0.16,0.22   c12.66,18.08,37.22,21.65,55.8,9.73C357.271,264.65,412.031,281.02,436.191,322.87z M389.771,417.27   c27.5-15.88,36.92-51.04,21.04-78.54c-15.87-27.5-51.04-36.92-78.54-21.05c-27.5,15.88-36.92,51.05-21.04,78.55   C327.101,423.73,362.271,433.15,389.771,417.27z"/>
	<circle style="fill:#274B6D;" cx="227.071" cy="280.803" r="7.5"/>
</g>















</svg>
